Patient4_TMGait_0pt4_02_left_24_GRF.mot
version=1
nRows=45
nColumns=19
inDegrees=no
endheader
time	F1x	F1y	F1z	M1x	M1y	M1z	F2x	F2y	F2z	M2x	M2y	M2z	EC1x	EC1y	EC1z	EC2x	EC2y	EC2z
32.13	2.1326	5.9381	-4.2433	-0.62508	1.0029	8.8549	-18.1576	739.9073	-57.4083	278.947	72.898	878.6474	-0.0592	0.0182	-0.0073	-0.0462	0.0165	0.9585
32.1446	1.4128	4.7517	-2.8952	-0.65166	0.66188	6.8554	-16.591	734.9419	-57.2311	276.8318	72.5329	868.0997	-0.0592	0.0182	-0.0073	-0.0462	0.0165	0.9585
32.1593	0.8182	3.7494	-1.7361	-0.67974	0.37774	5.1754	-14.8596	731.2622	-56.8718	275.2199	71.7373	858.8611	-0.0592	0.0182	-0.0073	-0.0462	0.0165	0.9585
32.1739	0.37566	3.0021	-0.84235	-0.70872	0.16633	3.9185	-13.1038	730.0494	-56.4179	274.5563	70.6454	852.5533	-0.0592	0.0182	-0.0073	-0.0462	0.0165	0.9585
32.1886	0.072087	2.5	-0.21663	-0.7351	0.02066	3.0721	-11.4327	732.0969	-55.9906	275.1279	69.4534	850.2274	-0.0592	0.0182	-0.0073	-0.0462	0.0165	0.9585
32.2032	-0.12406	2.1914	0.17604	-0.75268	-0.075212	2.5589	-9.9026	737.5621	-55.6822	276.9791	68.3199	852.1137	-0.0592	0.0182	-0.0073	-0.0462	0.0165	0.9585
32.2179	-0.24681	1.9938	0.38923	-0.75084	-0.13969	2.2496	-8.512	745.9034	-55.5607	279.8917	67.355	857.589	-0.0592	0.0182	-0.0073	-0.0462	0.0165	0.9585
32.2325	-0.33303	1.8106	0.48303	-0.71475	-0.19413	2.0032	-7.2123	755.9868	-55.6245	283.4254	66.5747	865.3223	-0.0592	0.0182	-0.0073	-0.0462	0.0165	0.9585
32.2471	-0.41153	1.5378	0.50171	-0.62386	-0.24642	1.6704	-5.9494	766.2735	-55.8316	286.9893	65.9396	873.5223	-0.0592	0.0182	-0.0073	-0.0462	0.0165	0.9585
32.2618	-0.49803	1.0647	0.48621	-0.45127	-0.30605	1.0967	-4.692	775.0832	-56.1038	289.9444	65.373	880.2528	-0.0592	0.0182	-0.0073	-0.0462	0.0165	0.9585
32.2764	-0.59609	0.29234	0.45608	-0.172	-0.36915	0.14791	-3.4403	780.9192	-56.3493	291.7301	64.7937	883.8075	-0.0592	0.0182	-0.0073	-0.0462	0.0165	0.9585
32.2911	-0.69543	-0.84738	0.42527	0.23243	-0.42948	-1.2674	-2.2037	782.805	-56.4839	291.9886	64.1295	883.0764	-0.0592	0.0182	-0.0073	-0.0462	0.0165	0.9585
32.3057	-0.76785	-2.3631	0.39604	0.76308	-0.47126	-3.1696	-0.97147	780.4655	-56.4568	290.6318	63.3349	877.7392	-0.0592	0.0182	-0.0073	-0.0462	0.0165	0.9585
32.3204	-0.76833	-4.1595	0.35577	1.387	-0.46259	-5.4426	0.28965	774.301	-56.3109	287.8279	62.4461	868.2216	-0.0592	0.0182	-0.0073	-0.0462	0.0165	0.9585
32.335	-0.62363	-5.9872	0.29258	2.0191	-0.35995	-7.7763	1.6423	765.2597	-56.1391	283.9498	61.5378	855.5512	-0.0592	0.0182	-0.0073	-0.0462	0.0165	0.9585
32.3496	-0.24032	-7.3875	0.17651	2.4999	-0.095435	-9.5937	3.1813	754.602	-56.0603	279.4853	60.7002	841.0898	-0.0592	0.0182	-0.0073	-0.0462	0.0165	0.9585
32.3643	0.49011	-7.6261	-0.018128	2.5737	0.39977	-9.9598	5.0151	743.6556	-56.1723	274.9467	59.996	826.2623	-0.0592	0.0182	-0.0073	-0.0462	0.0165	0.9585
32.3789	1.687	-5.638	-0.31674	1.8717	1.1954	-7.5203	7.2222	733.5701	-56.5384	270.7757	59.4574	812.3056	-0.0592	0.0182	-0.0073	-0.0462	0.0165	0.9585
32.3936	3.4368	-0.019115	-0.73222	-0.088459	2.3336	-0.49427	9.8089	725.0778	-57.1829	267.2501	59.0975	800.0275	-0.0592	0.0182	-0.0073	-0.0462	0.0165	0.9585
32.4082	5.7592	10.8842	-1.2527	-3.8718	3.7997	13.2186	12.6822	718.3151	-58.0557	264.4209	58.8875	789.6266	-0.0592	0.0182	-0.0073	-0.0462	0.0165	0.9585
32.4229	8.55	28.7526	-1.8351	-10.0487	5.4909	35.7568	15.6401	712.7691	-59.0417	262.0942	58.7663	780.6426	-0.0592	0.0182	-0.0073	-0.0462	0.0165	0.9585
32.4375	11.4794	54.8827	-2.3755	-19.0539	7.1523	68.7877	18.3907	707.3332	-59.9358	259.8526	58.614	772.0167	-0.0592	0.0182	-0.0073	-0.0462	0.0165	0.9585
32.4521	13.9003	89.5177	-2.6941	-30.9564	8.3234	112.6578	20.5868	700.4536	-60.4874	257.1105	58.2867	762.2305	-0.0592	0.0182	-0.0073	-0.0462	0.0165	0.9585
32.4668	14.7428	130.8838	-2.5132	-45.128	8.2773	165.1751	21.893	690.392	-60.4315	253.2141	57.6246	749.5525	-0.0592	0.0182	-0.0073	-0.0462	0.0165	0.9585
32.4814	12.6058	174.1011	-1.4281	-59.8674	6.0328	220.2464	22.104	675.6268	-59.5629	247.5962	56.491	732.4229	-0.0592	0.0182	-0.0073	-0.0462	0.0165	0.9585
32.4961	7.5307	212.2464	1.0904	-72.7623	1.0049	269.2054	21.2552	655.446	-57.8206	239.9977	54.8208	710.049	-0.0592	0.0182	-0.0073	-0.0462	0.0165	0.9585
32.5107	1.1568	241.3932	4.7471	-82.4686	-5.8339	306.9706	19.6572	630.4443	-55.3585	230.637	52.6818	682.9264	-0.0592	0.0182	-0.0073	-0.0462	0.0165	0.9585
32.5254	-5.3362	262.7412	8.8285	-89.4164	-13.1997	334.8891	17.8053	602.1193	-52.5814	220.0572	50.3228	652.4549	-0.0592	0.0182	-0.0073	-0.0462	0.0165	0.9585
32.54	-11.3957	279.9134	12.7607	-94.8739	-20.2005	357.499	16.2047	572.0317	-49.8294	208.8325	47.9146	620.1107	-0.0592	0.0182	-0.0073	-0.0462	0.0165	0.9585
32.5546	-16.8707	296.5061	16.315	-100.0933	-26.4816	379.341	15.2112	541.221	-47.1851	197.3589	45.4159	586.8712	-0.0592	0.0182	-0.0073	-0.0462	0.0165	0.9585
32.5693	-21.7728	314.8726	19.2573	-105.9061	-31.7832	403.2928	14.9738	510.0303	-44.4748	185.7832	42.5961	553.051	-0.0592	0.0182	-0.0073	-0.0462	0.0165	0.9585
32.5839	-26.0648	336.0759	21.7336	-112.6811	-36.2435	430.5968	15.4626	478.1912	-41.48	174.0253	39.2358	518.3667	-0.0592	0.0182	-0.0073	-0.0462	0.0165	0.9585
32.5986	-29.5653	360.5016	23.9034	-120.549	-40.0237	461.5801	16.4774	445.0861	-38.0621	161.8642	35.2578	482.1992	-0.0592	0.0182	-0.0073	-0.0462	0.0165	0.9585
32.6132	-32.1109	387.9944	26.1597	-129.4454	-43.5336	495.9333	17.6904	410.0266	-34.2429	149.0407	30.7879	443.876	-0.0592	0.0182	-0.0073	-0.0462	0.0165	0.9585
32.6279	-33.7287	417.8986	28.763	-139.1462	-47.1067	532.7302	18.7166	372.5512	-30.1484	135.3743	26.0827	402.9659	-0.0592	0.0182	-0.0073	-0.0462	0.0165	0.9585
32.6425	-34.5479	449.6303	31.8753	-149.4641	-50.9771	571.1459	19.1574	332.6663	-25.949	120.8549	21.4524	359.5371	-0.0592	0.0182	-0.0073	-0.0462	0.0165	0.9585
32.6571	-34.7476	483.1774	35.411	-160.4142	-55.1044	611.1002	18.7011	290.9356	-21.8313	105.6784	17.1988	314.2401	-0.0592	0.0182	-0.0073	-0.0462	0.0165	0.9585
32.6718	-34.4336	518.8402	39.1574	-172.1198	-59.2783	652.8945	17.2119	248.443	-17.9652	90.2349	13.5546	268.2541	-0.0592	0.0182	-0.0073	-0.0462	0.0165	0.9585
32.6864	-33.6897	556.7279	43.0076	-184.6233	-63.3812	696.6408	14.7332	206.6698	-14.4924	75.0586	10.6637	223.1683	-0.0592	0.0182	-0.0073	-0.0462	0.0165	0.9585
32.7011	-32.6548	596.3546	46.8429	-197.7533	-67.3221	741.7903	11.5074	167.2238	-11.4945	60.7317	8.5416	180.6786	-0.0592	0.0182	-0.0073	-0.0462	0.0165	0.9585
32.7157	-31.4642	636.5711	50.6928	-211.0948	-71.176	787.0538	7.9145	131.5217	-8.9952	47.7676	7.0934	142.2603	-0.0592	0.0182	-0.0073	-0.0462	0.0165	0.9585
32.7304	-30.2511	675.8041	54.5105	-224.0776	-74.9477	830.6693	4.3455	100.5409	-6.9601	36.5174	6.1496	108.9223	-0.0592	0.0182	-0.0073	-0.0462	0.0165	0.9585
32.745	-29.1193	712.3492	58.2471	-236.0824	-78.6162	870.7475	1.1437	74.6294	-5.3157	27.107	5.5086	80.9942	-0.0592	0.0182	-0.0073	-0.0462	0.0165	0.9585
32.7596	-28.1065	744.6494	61.7682	-246.5488	-82.0441	905.5707	-1.4762	53.6087	-3.9844	19.4742	5.0041	58.2787	-0.0592	0.0182	-0.0073	-0.0462	0.0165	0.9585
32.7743	-27.2382	771.4648	64.9326	-255.0317	-85.0773	933.8148	-3.3952	36.9779	-2.8996	13.4382	4.5109	40.2633	-0.0592	0.0182	-0.0073	-0.0462	0.0165	0.9585
